<svg width="1024" height="1024" viewBox="0 0 1024 1024" fill="none" xmlns="http://www.w3.org/2000/svg">
<path d="M384.719 195.512L384.211 195.787L516.665 393.595L372.498 482.349L69.9487 31.5195H274.666L384.719 195.512Z" fill="#F1A238"/>
<path d="M384.72 195.513L384.212 195.788L516.634 393.55L371.775 482.728L203.148 230.897L353.781 149.413L384.72 195.513Z" fill="white"/>
<g clip-path="url(#paint0_diamond_75_2_clip_path)" data-figma-skip-parse="true"><g transform="matrix(-4.1407 1.87434 -1.28308 -2.75008 3346.7 -482.963)"><rect x="0" y="0" width="799.608" height="298.042" fill="url(#paint0_diamond_75_2)" opacity="1" shape-rendering="crispEdges"/><rect x="0" y="0" width="799.608" height="298.042" transform="scale(1 -1)" fill="url(#paint0_diamond_75_2)" opacity="1" shape-rendering="crispEdges"/><rect x="0" y="0" width="799.608" height="298.042" transform="scale(-1 1)" fill="url(#paint0_diamond_75_2)" opacity="1" shape-rendering="crispEdges"/><rect x="0" y="0" width="799.608" height="298.042" transform="scale(-1)" fill="url(#paint0_diamond_75_2)" opacity="1" shape-rendering="crispEdges"/></g></g><path d="M512 996C416.879 996 332.948 975.499 260.208 934.497C187.468 893.496 130.582 836.895 89.5491 764.696C48.5164 691.606 28 607.374 28 512C28 416.626 48.5164 332.84 89.5491 260.641C130.582 187.551 187.468 130.505 260.208 89.5027C332.948 48.5009 416.879 28 512 28C608.054 28 692.451 48.5009 765.191 89.5027C837.931 130.505 894.351 187.551 934.451 260.641C975.484 332.84 996 416.626 996 512C996 607.374 975.484 691.606 934.451 764.696C894.351 836.895 837.931 893.496 765.191 934.497C692.451 975.499 608.054 996 512 996ZM512 834.221C571.684 834.221 622.975 821.297 665.873 795.448C709.703 768.707 743.742 731.271 767.988 683.138C792.235 635.006 804.358 577.959 804.358 512C804.358 445.149 792.235 388.103 767.988 340.862C743.742 292.729 709.703 255.738 665.873 229.889C622.975 204.04 571.684 191.116 512 191.116C453.249 191.116 401.958 204.04 358.127 229.889C314.297 255.738 280.258 292.729 256.012 340.862C231.765 388.103 219.642 445.149 219.642 512C219.642 577.959 231.765 635.006 256.012 683.138C280.258 731.271 314.297 768.707 358.127 795.448C401.958 821.297 453.249 834.221 512 834.221Z" data-figma-gradient-fill="{&#34;type&#34;:&#34;GRADIENT_DIAMOND&#34;,&#34;stops&#34;:[{&#34;color&#34;:{&#34;r&#34;:0.65882354974746704,&#34;g&#34;:0.90196079015731812,&#34;b&#34;:0.81176471710205078,&#34;a&#34;:1.0},&#34;position&#34;:0.083114229142665863},{&#34;color&#34;:{&#34;r&#34;:0.23921568691730499,&#34;g&#34;:0.86274510622024536,&#34;b&#34;:0.59215688705444336,&#34;a&#34;:1.0},&#34;position&#34;:0.97440004348754883}],&#34;stopsVar&#34;:[{&#34;color&#34;:{&#34;r&#34;:0.65882354974746704,&#34;g&#34;:0.90196079015731812,&#34;b&#34;:0.81176471710205078,&#34;a&#34;:1.0},&#34;position&#34;:0.083114229142665863},{&#34;color&#34;:{&#34;r&#34;:0.23921568691730499,&#34;g&#34;:0.86274510622024536,&#34;b&#34;:0.59215688705444336,&#34;a&#34;:1.0},&#34;position&#34;:0.97440004348754883}],&#34;transform&#34;:{&#34;m00&#34;:-8281.402343750,&#34;m01&#34;:-2566.1542968750,&#34;m02&#34;:8770.47656250,&#34;m10&#34;:3748.68652343750,&#34;m11&#34;:-5500.160644531250,&#34;m12&#34;:392.77383422851562},&#34;opacity&#34;:1.0,&#34;blendMode&#34;:&#34;NORMAL&#34;,&#34;visible&#34;:true}"/>
<path d="M512.296 387.071L575.982 482.178L576.179 482.057H576.18L921.22 994.251H716.612L371.951 482.619L371.776 482.727L265.121 323.446L415.295 242.21L512.296 387.071Z" fill="white"/>
<defs>
<clipPath id="paint0_diamond_75_2_clip_path"><path d="M512 996C416.879 996 332.948 975.499 260.208 934.497C187.468 893.496 130.582 836.895 89.5491 764.696C48.5164 691.606 28 607.374 28 512C28 416.626 48.5164 332.84 89.5491 260.641C130.582 187.551 187.468 130.505 260.208 89.5027C332.948 48.5009 416.879 28 512 28C608.054 28 692.451 48.5009 765.191 89.5027C837.931 130.505 894.351 187.551 934.451 260.641C975.484 332.84 996 416.626 996 512C996 607.374 975.484 691.606 934.451 764.696C894.351 836.895 837.931 893.496 765.191 934.497C692.451 975.499 608.054 996 512 996ZM512 834.221C571.684 834.221 622.975 821.297 665.873 795.448C709.703 768.707 743.742 731.271 767.988 683.138C792.235 635.006 804.358 577.959 804.358 512C804.358 445.149 792.235 388.103 767.988 340.862C743.742 292.729 709.703 255.738 665.873 229.889C622.975 204.04 571.684 191.116 512 191.116C453.249 191.116 401.958 204.04 358.127 229.889C314.297 255.738 280.258 292.729 256.012 340.862C231.765 388.103 219.642 445.149 219.642 512C219.642 577.959 231.765 635.006 256.012 683.138C280.258 731.271 314.297 768.707 358.127 795.448C401.958 821.297 453.249 834.221 512 834.221Z"/></clipPath><linearGradient id="paint0_diamond_75_2" x1="0" y1="0" x2="500" y2="500" gradientUnits="userSpaceOnUse">
<stop offset="0.0831142" stop-color="#A8E6CF"/>
<stop offset="0.9744" stop-color="#3DDC97"/>
</linearGradient>
</defs>
</svg>
